<svg width="512" height="512" viewBox="0 0 512 512" fill="none" xmlns="http://www.w3.org/2000/svg">
<g clip-path="url(#clip0_334_16)">
<rect width="512" height="512" rx="50" fill="white"/>
<path d="M167.523 405.906C146.951 405.906 128.591 401.544 112.445 392.82C96.4297 383.966 83.7995 371.922 74.5547 356.688C65.4401 341.323 60.8828 323.875 60.8828 304.344C60.8828 284.812 65.4401 267.43 74.5547 252.195C83.7995 236.831 96.4297 224.786 112.445 216.062C128.591 207.208 146.951 202.781 167.523 202.781C187.966 202.781 206.13 207.208 222.016 216.062C238.031 224.786 250.596 236.831 259.711 252.195C268.826 267.43 273.383 284.812 273.383 304.344C273.383 323.875 268.826 341.323 259.711 356.688C250.596 371.922 238.031 383.966 222.016 392.82C206.13 401.544 187.966 405.906 167.523 405.906ZM167.133 341.453C173.383 341.453 178.917 339.891 183.734 336.766C188.682 333.51 192.523 329.083 195.258 323.484C198.122 317.755 199.555 311.245 199.555 303.953C199.555 296.922 198.122 290.672 195.258 285.203C192.523 279.604 188.682 275.242 183.734 272.117C178.917 268.862 173.383 267.234 167.133 267.234C160.883 267.234 155.284 268.862 150.336 272.117C145.518 275.242 141.677 279.604 138.812 285.203C136.078 290.672 134.711 296.922 134.711 303.953C134.711 311.245 136.078 317.755 138.812 323.484C141.677 329.083 145.518 333.51 150.336 336.766C155.284 339.891 160.883 341.453 167.133 341.453ZM289.008 385.398L303.852 326.023C307.367 330.19 312.576 334.227 319.477 338.133C326.508 342.039 334.125 345.229 342.328 347.703C350.531 350.047 358.083 351.219 364.984 351.219C370.193 351.219 374.164 350.438 376.898 348.875C379.633 347.312 381 345.099 381 342.234C381 339.24 379.698 336.701 377.094 334.617C374.49 332.404 370.974 330.385 366.547 328.562C362.25 326.74 357.302 324.852 351.703 322.898C343.37 319.904 334.581 316.258 325.336 311.961C316.221 307.534 308.474 301.544 302.094 293.992C295.714 286.31 292.523 276.089 292.523 263.328C292.523 250.958 295.779 240.281 302.289 231.297C308.93 222.182 318.24 215.151 330.219 210.203C342.328 205.255 356.521 202.781 372.797 202.781C400.01 202.781 427.419 209.617 455.023 223.289L434.906 278.172C430.74 274.526 425.271 271.076 418.5 267.82C411.729 264.565 404.763 261.896 397.602 259.812C390.57 257.729 384.451 256.688 379.242 256.688C374.945 256.688 371.69 257.469 369.477 259.031C367.393 260.464 366.352 262.482 366.352 265.086C366.352 267.951 367.589 270.49 370.062 272.703C372.667 274.786 376.117 276.74 380.414 278.562C384.841 280.255 389.659 282.078 394.867 284.031C403.591 287.026 412.576 290.737 421.82 295.164C431.065 299.461 438.878 305.451 445.258 313.133C451.768 320.685 455.023 330.906 455.023 343.797C455.023 356.427 451.508 367.43 444.477 376.805C437.576 386.049 427.745 393.211 414.984 398.289C402.354 403.367 387.38 405.906 370.062 405.906C341.156 405.906 314.138 399.07 289.008 385.398Z" fill="black"/>
</g>
<defs>
<clipPath id="clip0_334_16">
<rect width="512" height="512" rx="50" fill="white"/>
</clipPath>
</defs>
</svg>
